<?xml version="1.0" encoding="UTF-8" standalone="no"?>
<!-- Created with Inkscape (http://www.inkscape.org/) -->

<svg
   xmlns:dc="http://purl.org/dc/elements/1.1/"
   xmlns:cc="http://creativecommons.org/ns#"
   xmlns:rdf="http://www.w3.org/1999/02/22-rdf-syntax-ns#"
   xmlns:svg="http://www.w3.org/2000/svg"
   xmlns="http://www.w3.org/2000/svg"
   xmlns:sodipodi="http://sodipodi.sourceforge.net/DTD/sodipodi-0.dtd"
   xmlns:inkscape="http://www.inkscape.org/namespaces/inkscape"
   width="48"
   height="48"
   viewBox="0 0 48 48"
   id="svg2"
   version="1.1"
   inkscape:version="0.91 r13725"
   sodipodi:docname="sigil.svg"
   inkscape:export-filename="/home/chorn/Pictures/sigil_64px.png"
   inkscape:export-xdpi="120"
   inkscape:export-ydpi="120">
  <defs
     id="defs4" />
  <sodipodi:namedview
     id="base"
     pagecolor="#ffffff"
     bordercolor="#666666"
     borderopacity="1.0"
     inkscape:pageopacity="0.0"
     inkscape:pageshadow="2"
     inkscape:zoom="16"
     inkscape:cx="12.7608"
     inkscape:cy="25.018514"
     inkscape:document-units="px"
     inkscape:current-layer="layer1"
     showgrid="true"
     units="px"
     inkscape:snap-center="true"
     inkscape:snap-object-midpoints="false"
     inkscape:snap-bbox="false"
     inkscape:snap-text-baseline="false"
     inkscape:snap-others="true"
     inkscape:snap-nodes="true"
     inkscape:window-width="958"
     inkscape:window-height="1019"
     inkscape:window-x="0"
     inkscape:window-y="33"
     inkscape:window-maximized="0">
    <inkscape:grid
       type="xygrid"
       id="grid3343"
       dotted="false"
       originx="24"
       originy="24" />
  </sodipodi:namedview>
  <metadata
     id="metadata7">
    <rdf:RDF>
      <cc:Work
         rdf:about="">
        <dc:format>image/svg+xml</dc:format>
        <dc:type
           rdf:resource="http://purl.org/dc/dcmitype/StillImage" />
        <dc:title></dc:title>
      </cc:Work>
    </rdf:RDF>
  </metadata>
  <g
     inkscape:label="Layer 1"
     inkscape:groupmode="layer"
     id="layer1"
     transform="translate(0,-1004.3622)">
    <g
       id="g4214"
       inkscape:transform-center-x="1.0131946"
       inkscape:transform-center-y="0.95819629"
       transform="matrix(0.89995126,-0.5195871,0.5195871,0.89995126,-531.92257,115.35642)">
      <path
         inkscape:transform-center-y="-9.9991865e-05"
         inkscape:transform-center-x="0.99973415"
         sodipodi:nodetypes="csacaacaacaacaacassc"
         inkscape:connector-curvature="0"
         id="circle4155"
         d="m 42.267825,1028.3622 c -3.3e-5,10.089 -8.178767,18.2678 -18.267812,18.2678 -1.261124,0 -2.449283,-0.423 -3.681614,-0.3711 -1.421067,0.06 -4.19445,0.7834 -4.19445,0.7834 0,0 -1.392907,-2.4829 -2.337356,-3.5324 -0.781522,-0.8685 -1.7009,-1.6309 -2.703588,-2.2306 -1.2034303,-0.7197 -3.8937454,-1.5922 -3.8937454,-1.5922 0,0 0.1927088,-2.8257 -0.021393,-4.214 -0.1824307,-1.1829 -0.5583279,-2.3447 -1.0643993,-3.4293 -0.6171782,-1.3228 -2.3709912,-3.6816 -2.3709912,-3.6816 0,0 1.753802,-2.3589 2.3710057,-3.6817 0.5060419,-1.0846 0.8819704,-2.2462 1.0644137,-3.429 0.2141385,-1.3883 0.021465,-4.2141 0.021465,-4.2141 0,0 2.6901692,-0.8726 3.8935195,-1.5924 1.002681,-0.5998 1.921979,-1.3623 2.703545,-2.2308 0.944516,-1.0495 2.337823,-3.5323 2.337823,-3.5323 0,0 2.773324,0.7235 4.194354,0.7833 1.23238,0.052 2.420434,-0.371 3.68176,-0.3711 10.088988,-10e-5 18.267779,8.1789 18.267694,18.2678 z"
         style="fill:none;fill-opacity:1;stroke:#800080;stroke-width:3;stroke-linecap:butt;stroke-miterlimit:4;stroke-dasharray:none;stroke-opacity:1" />
      <path
         inkscape:transform-center-x="-6.133789"
         inkscape:connector-curvature="0"
         transform="translate(0,1004.3622)"
         id="circle4195"
         d="M 24,5.7324219 A 18.267857,18.267857 0 0 0 18,6.7675781 18.267857,18.267857 0 0 1 30.267578,24 18.267857,18.267857 0 0 1 18,41.232422 18.267857,18.267857 0 0 0 24,42.267578 18.267857,18.267857 0 0 0 42.267578,24 18.267857,18.267857 0 0 0 24,5.7324219 Z"
         style="fill:#800080;fill-opacity:1;stroke:none;stroke-width:3;stroke-linecap:butt;stroke-miterlimit:4;stroke-dasharray:none;stroke-opacity:1" />
    </g>
  </g>
</svg>
